<svg width="82" height="82" fill="none" xmlns="http://www.w3.org/2000/svg">
    <path d="M70 0H12C5.373 0 0 5.373 0 12v58c0 6.627 5.373 12 12 12h58c6.627 0 12-5.373 12-12V12c0-6.627-5.373-12-12-12z" fill="#D5FF5C"/>
    <mask id="a" style="mask-type:alpha" maskUnits="userSpaceOnUse" x="14" y="9" width="53" height="64">
        <path fill-rule="evenodd" clip-rule="evenodd" d="M41.009 66.935l-9.047 5.023c-6.818 3.785-14.81-3.428-11.96-10.576.701-1.756 1.37-3.494 2.008-5.222l-4.035-2.29c-3.827-2.17-5.115-6.972-2.874-10.715L33.17 12.98c1.405-2.345 3.635-3.573 5.984-3.847 3.192-.55 6.658.596 8.557 3.836l18.224 31.087c2.207 3.764.876 8.555-2.969 10.69l-3.367 1.87c.6 1.579 1.224 3.177 1.876 4.798 2.866 7.128-5.131 14.219-11.904 10.377l-8.561-4.855z" fill="#fff"/>
    </mask>
    <g mask="url(#a)">
        <path fill="#FD4848" d="M0 0h82v82H0z"/>
        <path d="M57 48.499s-7.164 10-16 10c-8.837 0-16-10-16-10s7.163-10 16-10c8.836 0 16 10 16 10z" fill="#D5FF5C"/>
        <path d="M48.497 48.499a7.5 7.5 0 11-14.996 0 7.499 7.499 0 0114.997 0h-.001z" stroke="#FD4848" stroke-width="1.003"/>
        <path d="M45.497 48.499a4.499 4.499 0 11-8.997 0 4.5 4.5 0 018.998 0h-.001z" stroke="#FD4848" stroke-width="1.003"/>
        <path d="M51.498 48.499c0 5.798-4.7 10.498-10.498 10.498-5.799 0-10.5-4.7-10.5-10.498C30.5 42.701 35.201 38 41 38c5.798 0 10.498 4.7 10.498 10.499v0z" stroke="#FD4848" stroke-width="1.003"/>
        <path d="M54.497 48.499c0 7.455-6.043 13.498-13.498 13.498-7.455 0-13.498-6.043-13.498-13.498C27.501 41.043 33.544 35 40.999 35c7.455 0 13.499 6.044 13.499 13.499h-.001z" stroke="#FD4848" stroke-width="1.003"/>
        <path d="M42.498 48.499a1.498 1.498 0 11-2.995.077 1.498 1.498 0 012.995-.077z" fill="#FD4848" stroke="#FD4848" stroke-width="1.003"/>
        <path d="M25.72 48.62l-.093-.121.094-.122a33.184 33.184 0 014.293-4.499C32.88 41.405 36.764 39 41.001 39c4.236 0 8.12 2.405 10.986 4.878a33.198 33.198 0 014.293 4.5l.094.12c-.325.42-.662.833-1.01 1.235a33.194 33.194 0 01-3.377 3.386c-2.865 2.474-6.75 4.878-10.986 4.878-4.237 0-8.121-2.404-10.986-4.878a33.198 33.198 0 01-4.294-4.499h-.001z" stroke="#D5FF5C" stroke-width="1.003"/>
    </g>
</svg>
